<svg width="24" height="24" viewBox="0 0 24 24" fill="none" xmlns="http://www.w3.org/2000/svg">
<path fill-rule="evenodd" clip-rule="evenodd" d="M18.2978 5.68316C17.9189 5.75056 17.3817 5.92687 16.5215 6.21359L10.0305 8.37725C9.20312 8.65305 8.61936 8.84796 8.19946 9.0118C7.99178 9.09282 7.84715 9.15755 7.74658 9.21061C7.66139 9.25555 7.63077 9.28031 7.62895 9.28157C7.22309 9.67447 7.22309 10.3255 7.62895 10.7184C7.63077 10.7197 7.66139 10.7444 7.74658 10.7894C7.84715 10.8424 7.99178 10.9072 8.19946 10.9882C8.61936 11.152 9.20312 11.3469 10.0305 11.6227C10.0495 11.6291 10.0683 11.6353 10.087 11.6416C10.3604 11.7325 10.6004 11.8123 10.8214 11.9292C11.3539 12.2108 11.7892 12.6461 12.0708 13.1786C12.1877 13.3996 12.2675 13.6396 12.3585 13.913C12.3647 13.9317 12.3709 13.9505 12.3773 13.9695C12.6531 14.7969 12.848 15.3806 13.0118 15.8005C13.0928 16.0082 13.1576 16.1528 13.2106 16.2534C13.2556 16.3386 13.2803 16.3692 13.2816 16.371C13.6745 16.7769 14.3255 16.7769 14.7184 16.371C14.7197 16.3692 14.7444 16.3386 14.7894 16.2534C14.8424 16.1528 14.9072 16.0082 14.9882 15.8005C15.152 15.3806 15.3469 14.7969 15.6227 13.9695L17.7864 7.4785C18.0731 6.61833 18.2494 6.0811 18.3168 5.7022C18.3182 5.69431 18.3196 5.68664 18.3208 5.67917C18.3134 5.68043 18.3057 5.68176 18.2978 5.68316ZM18.5568 5.66005C18.5566 5.66023 18.5533 5.65996 18.5475 5.65869C18.5541 5.65923 18.557 5.65986 18.5568 5.66005ZM18.3413 5.45246C18.34 5.44672 18.3398 5.44344 18.34 5.44323C18.3401 5.44302 18.3408 5.44589 18.3413 5.45246ZM17.9475 3.71407C18.4985 3.61606 19.253 3.58687 19.8331 4.16692C20.4131 4.74698 20.3839 5.50149 20.2859 6.05248C20.1896 6.59391 19.9632 7.27303 19.7077 8.03932L19.6838 8.11096L17.5201 14.6019L17.5107 14.6301C17.2464 15.423 17.0358 16.0549 16.8514 16.5275C16.6781 16.9717 16.4726 17.4321 16.1631 17.7541C14.9827 18.9826 13.0173 18.9826 11.8369 17.7541C11.5274 17.4321 11.3219 16.9717 11.1486 16.5275C10.9642 16.055 10.7536 15.4231 10.4893 14.6303L10.4799 14.6019C10.3595 14.2407 10.3324 14.1695 10.3029 14.1136C10.209 13.9361 10.0639 13.791 9.88637 13.6971C9.83055 13.6676 9.75926 13.6405 9.39806 13.5201L9.36973 13.5107C8.57694 13.2464 7.94503 13.0358 7.47249 12.8514C7.0283 12.6781 6.56794 12.4726 6.24589 12.1631C5.01745 10.9827 5.01745 9.01734 6.24589 7.83687C6.56794 7.52739 7.0283 7.3219 7.47249 7.1486C7.94505 6.96422 8.57699 6.75357 9.36981 6.4893L9.39806 6.47989L15.889 4.31623C15.913 4.30824 15.9369 4.30028 15.9607 4.29235C16.727 4.03684 17.4061 3.81039 17.9475 3.71407Z" fill="white"/>
</svg>
